<svg width="15" height="16" viewBox="0 0 15 16" fill="none" xmlns="http://www.w3.org/2000/svg">
    <path fill-rule="evenodd" clip-rule="evenodd" d="M7.5 1.55005C3.91015 1.55005 1 4.4602 1 8.05005C1 11.6399 3.91015 14.55 7.5 14.55C11.0899 14.55 14 11.6399 14 8.05005C14 4.4602 11.0899 1.55005 7.5 1.55005ZM0 8.05005C0 3.90791 3.35786 0.550049 7.5 0.550049C11.6421 0.550049 15 3.90791 15 8.05005C15 12.1922 11.6421 15.55 7.5 15.55C3.35786 15.55 0 12.1922 0 8.05005ZM8 5.03003V9.34003H7V5.03003H8ZM8 11.06V10.2H7V11.06H8Z" fill="#759DFF"/>
</svg>
