<svg width="16" height="16" viewBox="0 0 16 16" fill="none" xmlns="http://www.w3.org/2000/svg">
    <path fill-rule="evenodd" clip-rule="evenodd" d="M1.5 8C1.5 4.41614 4.41614 1.5 8 1.5C11.5839 1.5 14.5 4.41614 14.5 8C14.5 11.5839 11.5839 14.5 8 14.5C4.41614 14.5 1.5 11.5839 1.5 8ZM8 0.5C3.86386 0.5 0.5 3.86386 0.5 8C0.5 12.1361 3.86386 15.5 8 15.5C12.1361 15.5 15.5 12.1361 15.5 8C15.5 3.86386 12.1361 0.5 8 0.5ZM7.65039 3.33008V8.00006C7.65039 8.2762 7.87425 8.50006 8.15039 8.50006H11.9404V7.50006H8.65039V3.33008H7.65039Z" fill="#ffffff"/>
</svg>
