<svg width="20" height="20" viewBox="0 0 20 20" fill="none" xmlns="http://www.w3.org/2000/svg">
    <path fill-rule="evenodd" clip-rule="evenodd" d="M12.7145 3.30957C10.1187 0.70606 5.89892 0.712816 3.30162 3.31012C0.705016 5.90672 0.705016 10.1269 3.30162 12.7235C4.98323 14.4052 6.85954 14.8602 8.54911 14.6771C10.2604 14.4917 11.7897 13.6489 12.715 12.7235C15.3116 10.1269 15.3116 5.90672 12.715 3.31012L12.7145 3.30957ZM13.4522 2.57409C10.4479 -0.439065 5.56775 -0.429155 2.56505 2.57355C-0.438349 5.57694 -0.438349 10.4567 2.56505 13.4601C4.48344 15.3785 6.67796 15.9276 8.6613 15.7128C10.4085 15.5235 11.9844 14.7435 13.0733 13.81L18.7984 19.5351L19.5349 18.7985L13.8115 13.0751C16.4496 10.0534 16.3298 5.45235 13.4522 2.57409Z" fill="white"/>
</svg>
