<svg width="16" height="16" viewBox="0 0 16 16" fill="none" xmlns="http://www.w3.org/2000/svg">
    <path fill-rule="evenodd" clip-rule="evenodd" d="M0.66 1C0.66 0.723858 0.883857 0.5 1.16 0.5H12.1C12.3761 0.5 12.6 0.723858 12.6 1V5.85H11.6V1.5H1.66V13H8.58V14H1.16C0.883857 14 0.66 13.7761 0.66 13.5V1Z" fill="#1E1E1E"/>
    <path fill-rule="evenodd" clip-rule="evenodd" d="M0.705932 0.790662C0.787616 0.613483 0.964898 0.5 1.16 0.5H12.1C12.2953 0.5 12.4727 0.613702 12.5543 0.79114C12.6359 0.968577 12.6067 1.17727 12.4795 1.32551L10.1295 4.06551C10.0345 4.17626 9.89591 4.24 9.75 4.24H3.5C3.35372 4.24 3.21478 4.17594 3.11978 4.06471L0.779784 1.32471C0.653081 1.17635 0.624247 0.96784 0.705932 0.790662ZM2.24453 1.5L3.73051 3.24H9.52012L11.0125 1.5H2.24453Z" fill="#1E1E1E"/>
    <path fill-rule="evenodd" clip-rule="evenodd" d="M11.33 8.46094C9.6621 8.46094 8.31 9.81304 8.31 11.4809C8.31 13.1488 9.6621 14.5009 11.33 14.5009C12.9979 14.5009 14.35 13.1488 14.35 11.4809C14.35 9.81303 12.9979 8.46094 11.33 8.46094ZM7.31 11.4809C7.31 9.26075 9.10982 7.46094 11.33 7.46094C13.5502 7.46094 15.35 9.26075 15.35 11.4809C15.35 13.7011 13.5502 15.5009 11.33 15.5009C9.10982 15.5009 7.31 13.7011 7.31 11.4809Z" fill="#1E1E1E"/>
    <path fill-rule="evenodd" clip-rule="evenodd" d="M8.88 7.64922C8.88 6.30308 9.98385 5.19922 11.33 5.19922C12.6761 5.19922 13.78 6.30308 13.78 7.64922V9.48886L13.0044 8.97639C12.5228 8.65821 11.9497 8.47024 11.335 8.46923C10.7191 8.47024 10.1384 8.65884 9.66075 8.98296L8.88 9.51275V7.64922ZM11.34 7.46924L11.33 7.46922C10.8222 7.47048 10.3317 7.56755 9.88 7.74449V7.64922C9.88 6.85536 10.5361 6.19922 11.33 6.19922C12.1239 6.19922 12.78 6.85536 12.78 7.64922V7.74084C12.3332 7.56751 11.8478 7.47049 11.34 7.46924Z" fill="#1E1E1E"/>
    <path d="M11.33 12.2592C11.7608 12.2592 12.11 11.91 12.11 11.4792C12.11 11.0484 11.7608 10.6992 11.33 10.6992C10.8992 10.6992 10.55 11.0484 10.55 11.4792C10.55 11.91 10.8992 12.2592 11.33 12.2592Z" fill="#1E1E1E"/>
</svg>
