<svg width="24" height="24" viewBox="0 0 24 24" fill="none" xmlns="http://www.w3.org/2000/svg">
    <path d="M23.1988 5.23039C23.1988 4.09488 22.7648 2.95936 21.8967 2.09508C21.0576 1.25953 19.9402 0.799804 18.7479 0.799804C17.5555 0.799804 16.437 1.25953 15.599 2.09508L9.3624 8.3048C8.52324 9.14035 8.06152 10.2529 8.06152 11.4401C8.06152 12.6274 8.52324 13.741 9.3624 14.5754C9.84489 15.0558 10.6263 15.0558 11.1088 14.5754C11.5913 14.095 11.5913 13.3169 11.1088 12.8365C10.3355 12.0665 10.3355 10.8126 11.1088 10.0426L17.3454 3.83283C18.1188 3.0628 19.3781 3.0628 20.1515 3.83283C20.9248 4.60287 20.9248 5.85677 20.1515 6.62681L17.2092 9.5564C16.7267 10.0368 16.7267 10.8149 17.2092 11.2953C17.6917 11.7757 18.4731 11.7757 18.9556 11.2953L21.8979 8.36571C22.7659 7.50143 23.1999 6.36591 23.1999 5.23039L23.1988 5.23039Z" fill="#55BA75"/>
    <path d="M15.9118 12.5855C15.9118 11.3982 15.4501 10.2846 14.611 9.45015C14.1285 8.96974 13.347 8.96974 12.8645 9.45015C12.382 9.93056 12.382 10.7086 12.8645 11.1891C13.6379 11.9591 13.6379 13.213 12.8645 13.983L6.6545 20.1663C5.88113 20.9364 4.62181 20.9364 3.84845 20.1663C3.07508 19.3963 3.07508 18.1424 3.84845 17.3723L6.76531 14.4692C7.2478 13.9888 7.2478 13.2107 6.76531 12.7303C6.28282 12.2499 5.50138 12.2499 5.01889 12.7303L2.10202 15.6334C0.365978 17.362 0.365978 20.1755 2.10202 21.9041C2.94118 22.7396 4.05852 23.1993 5.2509 23.1993C6.44327 23.1993 7.56177 22.7396 8.39978 21.9041L14.6098 15.7208C15.449 14.8852 15.9107 13.7727 15.9107 12.5855L15.9118 12.5855Z" fill="#55BA75"/>
</svg>
