<svg width="67" height="64" viewBox="0 0 67 64" fill="none" xmlns="http://www.w3.org/2000/svg">
    <g clip-path="url(#clip0_1_4989)">
        <path fill-rule="evenodd" clip-rule="evenodd" d="M33.4546 2.90909C31.0446 2.90909 29.091 4.86276 29.091 7.27273C29.091 9.6827 31.0446 11.6364 33.4546 11.6364C35.8646 11.6364 37.8182 9.6827 37.8182 7.27273C37.8182 4.86276 35.8646 2.90909 33.4546 2.90909ZM26.1819 7.27273C26.1819 3.25611 29.438 0 33.4546 0C37.4712 0 40.7273 3.25611 40.7273 7.27273C40.7273 11.2893 37.4712 14.5455 33.4546 14.5455C29.438 14.5455 26.1819 11.2893 26.1819 7.27273Z" fill="#7F9DE8"/>
        <path fill-rule="evenodd" clip-rule="evenodd" d="M20.3636 24.7273C20.3636 17.4948 26.2221 11.6364 33.4546 11.6364C40.687 11.6364 46.5455 17.4948 46.5455 24.7273V39.2727C46.5455 40.076 45.8942 40.7273 45.0909 40.7273H42.0938L40.7245 62.6362C40.6765 63.4028 40.0408 64 39.2727 64H27.6364C26.8683 64 26.2326 63.4028 26.1847 62.6362L24.8154 40.7273H21.8182C21.0149 40.7273 20.3636 40.076 20.3636 39.2727V24.7273ZM33.4546 14.5454C27.8288 14.5454 23.2727 19.1015 23.2727 24.7273V37.8182H26.1818C26.9499 37.8182 27.5856 38.4154 27.6335 39.182L29.0028 61.0909H37.9063L39.2756 39.182C39.3235 38.4154 39.9592 37.8182 40.7273 37.8182H43.6364V24.7273C43.6364 19.1015 39.0803 14.5454 33.4546 14.5454Z" fill="#7F9DE8"/>
        <path fill-rule="evenodd" clip-rule="evenodd" d="M53.8181 7.27274C51.4082 7.27274 49.4545 9.2264 49.4545 11.6364C49.4545 14.0463 51.4082 16 53.8181 16C56.2281 16 58.1818 14.0463 58.1818 11.6364C58.1818 9.2264 56.2281 7.27274 53.8181 7.27274ZM46.5454 11.6364C46.5454 7.61976 49.8015 4.36365 53.8181 4.36365C57.8348 4.36365 61.0909 7.61976 61.0909 11.6364C61.0909 15.653 57.8348 18.9091 53.8181 18.9091C49.8015 18.9091 46.5454 15.653 46.5454 11.6364Z" fill="#7F9DE8"/>
        <path fill-rule="evenodd" clip-rule="evenodd" d="M53.8181 16C61.0505 16 66.909 21.8585 66.909 29.0909V39.2727C66.909 40.0761 66.2578 40.7273 65.4545 40.7273H62.4378L61.0866 58.2934C61.0283 59.0512 60.3964 59.6364 59.6363 59.6364H47.9999C47.2397 59.6364 46.6078 59.051 46.5497 58.293L45.546 45.2021L48.4466 44.9797L49.3472 56.7273H58.2894L59.6406 39.1612C59.6989 38.4034 60.3308 37.8182 61.0909 37.8182H63.9999V29.0909C63.9999 23.4651 59.4439 18.9091 53.8181 18.9091V16Z" fill="#7F9DE8"/>
        <path fill-rule="evenodd" clip-rule="evenodd" d="M13.091 7.27274C10.681 7.27274 8.72733 9.2264 8.72733 11.6364C8.72733 14.0463 10.681 16 13.091 16C15.5009 16 17.4546 14.0463 17.4546 11.6364C17.4546 9.2264 15.5009 7.27274 13.091 7.27274ZM5.81824 11.6364C5.81824 7.61976 9.07435 4.36365 13.091 4.36365C17.1076 4.36365 20.3637 7.61976 20.3637 11.6364C20.3637 15.653 17.1076 18.9091 13.091 18.9091C9.07435 18.9091 5.81824 15.653 5.81824 11.6364Z" fill="#7F9DE8"/>
        <path fill-rule="evenodd" clip-rule="evenodd" d="M13.0909 18.9091C7.46514 18.9091 2.90909 23.4651 2.90909 29.0909V37.8182H5.81818C6.57823 37.8182 7.21015 38.4034 7.26844 39.1612L8.61968 56.7273H17.5618L18.4624 44.9797L21.363 45.2021L20.3594 58.293C20.3013 59.051 19.6693 59.6364 18.9091 59.6364H7.27273C6.51267 59.6364 5.88076 59.0512 5.82247 58.2934L4.47123 40.7273H1.45455C0.651222 40.7273 0 40.0761 0 39.2727V29.0909C0 21.8585 5.8585 16 13.0909 16V18.9091Z" fill="#7F9DE8"/>
    </g>
    <defs>
        <clipPath id="clip0_1_4989">
            <rect width="66.9091" height="64" fill="white"/>
        </clipPath>
    </defs>
</svg>
