<svg width="147" height="24" viewBox="0 0 147 24" fill="none" xmlns="http://www.w3.org/2000/svg">
    <path d="M5.32336 23.9974C4.34549 23.9974 3.39507 23.915 2.47459 23.7479C1.5541 23.5833 0.728407 23.3488 0 23.0519L0.436545 19.7791C1.3246 20.1508 2.20767 20.4377 3.08575 20.6397C3.96133 20.8418 4.77206 20.944 5.51544 20.944C6.38104 20.944 7.0421 20.7894 7.50359 20.4826C7.96508 20.1757 8.19457 19.7342 8.19457 19.1604C8.19457 18.4096 7.72061 17.8109 6.77518 17.3669L4.30309 16.167C3.08326 15.5683 2.13782 14.8299 1.46679 13.9493C0.795759 13.0688 0.46149 12.0934 0.46149 11.0282C0.46149 9.52403 0.957905 8.36157 1.95323 7.53588C2.94855 6.71018 4.35298 6.29858 6.1715 6.29858C7.22919 6.29858 8.23449 6.48567 9.18491 6.85736C10.1353 7.22905 10.976 7.76787 11.7119 8.46884L9.50421 11.0033C8.94543 10.4695 8.38416 10.0604 7.8179 9.77348C7.25164 9.48661 6.70533 9.34193 6.18148 9.34193C5.47053 9.34193 4.91674 9.49409 4.52011 9.79593C4.12348 10.0978 3.92641 10.5368 3.92641 11.1106C3.92641 11.4897 4.06611 11.8489 4.34549 12.1907C4.62488 12.53 5.02152 12.8368 5.54038 13.1112L7.86779 14.3111C9.08014 14.9422 10.0156 15.6781 10.6742 16.5187C11.3327 17.3594 11.662 18.2599 11.662 19.2228C11.662 20.7495 11.1132 21.9294 10.0131 22.7576C8.913 23.5858 7.34892 23.9999 5.32086 23.9999L5.32336 23.9974Z" fill="white"/>
    <path d="M19.6217 23.9974C17.399 23.9974 15.6828 23.4212 14.4679 22.2687C13.2531 21.1163 12.6494 19.4624 12.6494 17.3046C12.6494 15.1468 13.1658 13.5703 14.196 12.4078C15.2263 11.2428 16.6806 10.6616 18.554 10.6616C20.4274 10.6616 21.8069 11.1979 22.8097 12.2731C23.8125 13.3482 24.3139 14.9123 24.3139 16.9653C24.3139 17.5466 24.289 18.1003 24.2416 18.6267H14.8097V16.3467H21.0909C21.0909 15.4811 20.8714 14.82 20.4299 14.3585C19.9884 13.897 19.3722 13.6675 18.5814 13.6675C17.7258 13.6675 17.0598 13.9719 16.5858 14.583C16.1118 15.1942 15.8774 16.0598 15.8774 17.1849C15.8774 18.3972 16.2266 19.3177 16.9251 19.9488C17.6235 20.5799 18.6214 20.8942 19.9135 20.8942C20.4948 20.8942 21.0685 20.8643 21.6348 20.8044C22.201 20.7446 22.7773 20.6622 23.3685 20.555L23.6828 23.6582C22.8596 23.8029 22.1062 23.8977 21.4277 23.9376C20.7492 23.9775 20.1455 23.9974 19.6217 23.9974Z" fill="white"/>
    <path d="M24.998 8.58627V5.56787H28.8545V8.58627H24.998ZM33.205 23.9951C31.5886 23.9951 30.4236 23.551 29.7077 22.6605C28.9917 21.7724 28.635 20.348 28.635 18.3923V5.56787H31.9079V18.2726C31.9079 18.8064 31.9652 19.243 32.0775 19.5822C32.1898 19.9215 32.4093 20.1734 32.7311 20.3331C33.0554 20.4952 33.5343 20.575 34.1729 20.575C34.8839 20.575 35.7819 20.4204 36.8645 20.1136L37.2412 23.4837C36.5552 23.6608 35.8917 23.7905 35.2531 23.8728C34.6145 23.9527 33.9309 23.9951 33.205 23.9951Z" fill="white"/>
    <path d="M44.9947 23.9974C42.7721 23.9974 41.0558 23.4212 39.841 22.2687C38.6261 21.1163 38.0225 19.4624 38.0225 17.3046C38.0225 15.1468 38.5388 13.5703 39.5691 12.4078C40.5993 11.2428 42.0536 10.6616 43.927 10.6616C45.8004 10.6616 47.1799 11.1979 48.1827 12.2731C49.1855 13.3482 49.6869 14.9123 49.6869 16.9653C49.6869 17.5466 49.662 18.1003 49.6146 18.6267H40.1827V16.3467H46.464C46.464 15.4811 46.2445 14.82 45.8029 14.3585C45.3614 13.897 44.7453 13.6675 43.9545 13.6675C43.0989 13.6675 42.4328 13.9719 41.9589 14.583C41.4849 15.1942 41.2504 16.0598 41.2504 17.1849C41.2504 18.3972 41.5996 19.3177 42.2981 19.9488C42.9966 20.5799 43.9944 20.8942 45.2866 20.8942C45.8678 20.8942 46.4415 20.8643 47.0078 20.8044C47.5741 20.7446 48.1503 20.6622 48.7415 20.555L49.0558 23.6582C48.2326 23.8029 47.4793 23.8977 46.8008 23.9376C46.1222 23.9775 45.5186 23.9974 44.9947 23.9974Z" fill="white"/>
    <path d="M58.1652 23.9972C55.8303 23.9972 54.0218 23.421 52.747 22.2685C51.4698 21.116 50.8312 19.4621 50.8312 17.3043C50.8312 15.1466 51.4125 13.57 52.5774 12.4076C53.7424 11.2426 55.4012 10.6614 57.559 10.6614C58.8836 10.6614 60.0211 10.9208 60.9716 11.4372C61.922 11.9536 62.593 12.6869 62.9896 13.6324L60.6123 15.5232C60.2556 14.9645 59.8066 14.5354 59.2603 14.2311C58.714 13.9292 58.1153 13.7771 57.4592 13.7771C56.4315 13.7771 55.6307 14.0714 55.052 14.6626C54.4733 15.2538 54.1864 16.0945 54.1864 17.1846C54.1864 18.3895 54.5556 19.305 55.2965 19.9361C56.0373 20.5672 57.0876 20.8815 58.4546 20.8815C59.0358 20.8815 59.617 20.8541 60.1933 20.7967C60.772 20.7393 61.3358 20.6645 61.8846 20.5672L62.2238 23.6355C61.5702 23.7802 60.8942 23.8775 60.1982 23.9274C59.5023 23.9748 58.8238 23.9997 58.1602 23.9997L58.1652 23.9972Z" fill="white"/>
    <path d="M62.7178 13.9219V10.9035H74.769V13.9219H62.7178ZM65.7961 17.4866V7.02197H69.0689V17.4841H65.7961V17.4866ZM72.0749 23.9973C69.8597 23.9973 68.2607 23.5533 67.2729 22.6628C66.2875 21.7747 65.7936 20.3503 65.7936 18.3946V16.7208H69.0664V18.0778C69.0664 19.0556 69.3184 19.7666 69.8248 20.2106C70.3312 20.6546 71.1594 20.8767 72.3168 20.8767C72.6885 20.8767 73.0877 20.8542 73.5117 20.8093C73.9358 20.7644 74.4197 20.707 74.9611 20.6322L75.2529 23.7005C74.7191 23.7978 74.2002 23.8701 73.6938 23.9175C73.1874 23.9649 72.6486 23.9899 72.0749 23.9899V23.9973Z" fill="white"/>
    <path d="M82.2529 0H101.367V4.16133H94.1049V23.9204H89.5442V4.16133H82.2529V0Z" fill="white"/>
    <path d="M114.818 16.4048H102.937C103.092 17.5689 103.509 18.4613 104.186 19.0821C104.864 19.6835 105.678 19.9842 106.627 19.9842C107.517 19.9842 108.292 19.7999 108.95 19.4313C109.609 19.0433 110.083 18.4904 110.374 17.7726L114.528 18.9948C114.044 20.5856 113.095 21.8175 111.681 22.6905C110.267 23.5635 108.583 24 106.627 24C105.097 24 103.712 23.6702 102.473 23.0106C101.253 22.3704 100.275 21.4198 99.5386 20.1588C98.8221 18.8784 98.4638 17.3264 98.4638 15.5027V13.9313C98.4638 12.1271 98.8221 10.5848 99.5386 9.3044C100.275 8.024 101.253 7.06369 102.473 6.42348C103.712 5.78328 105.097 5.46318 106.627 5.46318C108.156 5.46318 109.541 5.78328 110.781 6.42348C112.02 7.06369 112.998 8.024 113.715 9.3044C114.45 10.5848 114.818 12.1368 114.818 13.9604V16.4048ZM110.345 12.68C110.345 12.1174 110.171 11.5936 109.822 11.1086C109.493 10.6042 109.038 10.2065 108.457 9.91551C107.895 9.62451 107.285 9.479 106.627 9.479C105.736 9.479 104.961 9.7506 104.303 10.2938C103.644 10.837 103.208 11.6324 102.995 12.68H110.345Z" fill="white"/>
    <path d="M119.868 17.5428C120.469 18.4546 121.224 19.1142 122.134 19.5216C123.044 19.929 123.916 20.1327 124.749 20.1327C125.523 20.1327 126.172 20.0163 126.695 19.7835C127.218 19.5313 127.479 19.1336 127.479 18.5904C127.479 18.0666 127.276 17.6786 126.869 17.4264C126.482 17.1742 125.891 16.9511 125.097 16.7571L123.209 16.3206C121.621 15.952 120.304 15.3312 119.258 14.4582C118.232 13.5852 117.719 12.3533 117.719 10.7625C117.719 9.05526 118.329 7.74576 119.549 6.83395C120.788 5.90274 122.405 5.43714 124.4 5.43714C127.44 5.43714 129.9 6.64965 131.778 9.07466L128.554 11.5482C127.934 10.8498 127.247 10.2969 126.492 9.88947C125.756 9.48207 125.029 9.27837 124.313 9.27837C123.616 9.27837 123.073 9.40447 122.686 9.65667C122.299 9.90887 122.105 10.2775 122.105 10.7625C122.105 11.2281 122.26 11.5967 122.57 11.8683C122.899 12.1205 123.412 12.3339 124.109 12.5085L125.998 12.945C127.683 13.333 129.077 13.9538 130.181 14.8074C131.304 15.661 131.866 16.922 131.866 18.5904C131.866 19.7932 131.527 20.7923 130.849 21.5877C130.19 22.4026 129.309 23.004 128.205 23.392C127.121 23.78 125.94 23.974 124.661 23.974C122.822 23.974 121.185 23.6248 119.752 22.9264C118.319 22.228 117.215 21.2191 116.441 19.8999L119.868 17.5428Z" fill="white"/>
    <path d="M146.058 23.127C145.535 23.3792 144.915 23.5732 144.199 23.709C143.482 23.8448 142.785 23.9127 142.107 23.9127C140.384 23.9127 139.028 23.4665 138.04 22.5741C137.072 21.6817 136.588 20.4013 136.588 18.7329V9.97371H133.915V5.81238H136.588V1.30185H141.149V5.81238H145.215V9.97371H141.149V18.0054C141.149 18.6456 141.284 19.1015 141.555 19.3731C141.826 19.6253 142.243 19.7514 142.804 19.7514C143.521 19.7514 144.286 19.6059 145.099 19.3149L146.058 23.127Z" fill="white"/>
</svg>
