<svg width="20" height="22" viewBox="0 0 20 22" fill="none" xmlns="http://www.w3.org/2000/svg">
    <path d="M10.3342 20.8339H10.3333C9.6365 20.8339 8.95094 20.6526 8.34529 20.3083L10.3342 20.8339ZM10.3342 20.8339C11.0312 20.8327 11.7154 20.6527 12.3224 20.3083C12.3224 20.3083 12.3225 20.3083 12.3225 20.3083L17.458 17.3948L17.4583 17.3946C18.7177 16.6787 19.4975 15.34 19.5 13.8884V13.8876V8.11254V8.1117C19.4975 6.66033 18.719 5.32142 17.4581 4.60539L17.458 4.60528L12.3224 1.69183C12.3224 1.69183 12.3224 1.69183 12.3224 1.69182C11.0891 0.992056 9.57872 0.992049 8.34533 1.6918C8.34531 1.69181 8.34529 1.69182 8.34528 1.69183L3.20873 4.60526L3.2085 4.60539C1.94767 5.32142 1.16912 6.66033 1.16666 8.1117V8.11254L1.16666 13.8876L1.16666 13.8884C1.16912 15.3398 1.94774 16.6788 3.20976 17.3948L3.20977 17.3948L8.34488 20.3081L10.3342 20.8339Z" fill="#005BAC" stroke="url(#paint0_linear_396_2929)"/>
    <path fill-rule="evenodd" clip-rule="evenodd" d="M5.66675 14.6605H7.18488V6.71387H5.66675V14.6605ZM12.9269 12.0942L9.34052 6.71387H7.8422V14.6605H9.34052V9.32394L12.9269 14.6605H12.9278H14.3963H14.4261V6.71387H14.3963H12.9278H12.9269V12.0942Z" fill="white"/>
    <defs>
        <linearGradient id="paint0_linear_396_2929" x1="5.33332" y1="3.00033" x2="13.6667" y2="20.0003" gradientUnits="userSpaceOnUse">
            <stop stop-color="#08407B"/>
            <stop offset="0.265" stop-color="#1C93CD"/>
            <stop offset="0.59" stop-color="#0079B4"/>
            <stop offset="1" stop-color="#08407B"/>
        </linearGradient>
    </defs>
</svg>
