<svg width="244" height="40" viewBox="0 0 244 40" fill="none" xmlns="http://www.w3.org/2000/svg">
    <path d="M9.20343 39.6799C7.57367 39.6799 5.98963 39.5427 4.45549 39.2641C2.92134 38.9897 1.54519 38.5989 0.331177 38.1041L1.05875 32.6494C2.53885 33.2689 4.01063 33.747 5.47409 34.0838C6.9334 34.4205 8.28461 34.591 9.52357 34.591C10.9662 34.591 12.068 34.3332 12.8372 33.8218C13.6063 33.3105 13.9888 32.5746 13.9888 31.6183C13.9888 30.3669 13.1989 29.3691 11.6231 28.629L7.50299 26.6292C5.46994 25.6314 3.89422 24.4008 2.77583 22.9332C1.65744 21.4655 1.10033 19.8399 1.10033 18.0646C1.10033 15.5576 1.92768 13.6202 3.58656 12.244C5.24543 10.8679 7.58614 10.1819 10.617 10.1819C12.3798 10.1819 14.0553 10.4937 15.6394 11.1132C17.2234 11.7327 18.6245 12.6307 19.851 13.799L16.1715 18.0231C15.2402 17.1333 14.3048 16.4515 13.361 15.9734C12.4172 15.4953 11.5067 15.2541 10.6336 15.2541C9.44873 15.2541 8.52575 15.5077 7.8647 16.0108C7.20364 16.5139 6.87519 17.2456 6.87519 18.2018C6.87519 18.8338 7.10802 19.4325 7.57367 20.0021C8.03931 20.5675 8.70037 21.0789 9.56514 21.5362L13.4442 23.536C15.4647 24.5879 17.0238 25.8144 18.1214 27.2155C19.219 28.6166 19.7678 30.1174 19.7678 31.7223C19.7678 34.2667 18.8532 36.2332 17.0197 37.6135C15.1862 38.9939 12.5794 39.684 9.19928 39.684L9.20343 39.6799Z" fill="#72C5C2"/>
    <path d="M33.0343 39.6795C29.3299 39.6795 26.4695 38.7191 24.4448 36.7983C22.4201 34.8775 21.4139 32.121 21.4139 28.5247C21.4139 24.9284 22.2745 22.3009 23.9916 20.3634C25.7087 18.4218 28.1326 17.4531 31.2549 17.4531C34.3772 17.4531 36.6764 18.347 38.3477 20.1389C40.0191 21.9308 40.8547 24.5376 40.8547 27.9593C40.8547 28.928 40.8131 29.851 40.7342 30.7283H25.0144V26.9282H35.4831C35.4831 25.4856 35.1173 24.3838 34.3814 23.6146C33.6455 22.8455 32.6186 22.463 31.3006 22.463C29.8746 22.463 28.7645 22.9702 27.9746 23.9888C27.1846 25.0074 26.7938 26.4501 26.7938 28.3252C26.7938 30.3458 27.3759 31.8799 28.54 32.9318C29.7041 33.9836 31.3671 34.5075 33.5208 34.5075C34.4895 34.5075 35.4457 34.4576 36.3895 34.3578C37.3333 34.258 38.2937 34.1208 39.279 33.9421L39.8029 39.1141C38.4309 39.3552 37.1753 39.5132 36.0444 39.5797C34.9136 39.6462 33.9074 39.6795 33.0343 39.6795Z" fill="#72C5C2"/>
    <path d="M41.9945 13.9945V8.96387H48.4221V13.9945H41.9945ZM55.6729 39.6758C52.9788 39.6758 51.0372 38.9358 49.844 37.4515C48.6508 35.9715 48.0563 33.5975 48.0563 30.3379V8.96387H53.511V30.1384C53.511 31.0281 53.6066 31.7557 53.7937 32.3211C53.9808 32.8865 54.3467 33.3065 54.883 33.5725C55.4235 33.8428 56.2217 33.9758 57.2861 33.9758C58.471 33.9758 59.9677 33.7181 61.7721 33.2067L62.3999 38.8235C61.2566 39.1187 60.1507 39.3349 59.0863 39.4721C58.022 39.6052 56.8828 39.6758 55.6729 39.6758Z" fill="#72C5C2"/>
    <path d="M75.3216 39.6795C71.6172 39.6795 68.7568 38.7191 66.7321 36.7983C64.7073 34.8775 63.7012 32.121 63.7012 28.5247C63.7012 24.9284 64.5618 22.3009 66.2789 20.3634C67.996 18.4218 70.4198 17.4531 73.5422 17.4531C76.6645 17.4531 78.9637 18.347 80.635 20.1389C82.3063 21.9308 83.142 24.5376 83.142 27.9593C83.142 28.928 83.1004 29.851 83.0214 30.7283H67.3017V26.9282H77.7704C77.7704 25.4856 77.4046 24.3838 76.6687 23.6146C75.9328 22.8455 74.9059 22.463 73.5879 22.463C72.1619 22.463 71.0518 22.9702 70.2619 23.9888C69.4719 25.0074 69.0811 26.4501 69.0811 28.3252C69.0811 30.3458 69.6632 31.8799 70.8273 32.9318C71.9914 33.9836 73.6544 34.5075 75.8081 34.5075C76.7768 34.5075 77.733 34.4576 78.6768 34.3578C79.6206 34.258 80.5809 34.1208 81.5663 33.9421L82.0901 39.1141C80.7181 39.3552 79.4626 39.5132 78.3317 39.5797C77.2008 39.6462 76.1947 39.6795 75.3216 39.6795Z" fill="#72C5C2"/>
    <path d="M97.2732 39.6795C93.3817 39.6795 90.3675 38.7191 88.2429 36.7983C86.1143 34.8775 85.0499 32.121 85.0499 28.5247C85.0499 24.9284 86.0186 22.3009 87.9602 20.3634C89.9018 18.4218 92.6666 17.4531 96.2629 17.4531C98.4706 17.4531 100.366 17.8855 101.95 18.7461C103.534 19.6067 104.653 20.8291 105.314 22.4048L101.352 25.5562C100.757 24.6249 100.009 23.9098 99.0984 23.4026C98.1879 22.8995 97.19 22.6459 96.0966 22.6459C94.3837 22.6459 93.0491 23.1365 92.0845 24.1219C91.12 25.1072 90.6419 26.5083 90.6419 28.3252C90.6419 30.3333 91.2572 31.8591 92.492 32.911C93.7268 33.9628 95.4771 34.4867 97.7555 34.4867C98.7242 34.4867 99.6929 34.441 100.653 34.3453C101.618 34.2497 102.557 34.125 103.472 33.9628L104.038 39.0767C102.948 39.3178 101.822 39.4799 100.662 39.5631C99.5016 39.6421 98.3708 39.6837 97.2649 39.6837L97.2732 39.6795Z" fill="#72C5C2"/>
    <path d="M104.861 22.8873V17.8566H124.946V22.8873H104.861ZM109.991 28.8285V11.3875H115.446V28.8243H109.991V28.8285ZM120.456 39.6797C116.764 39.6797 114.099 38.9397 112.453 37.4554C110.81 35.9753 109.987 33.6014 109.987 30.3418V27.5521H115.442V29.8138C115.442 31.4436 115.862 32.6285 116.706 33.3685C117.55 34.1086 118.93 34.4786 120.859 34.4786C121.479 34.4786 122.144 34.4412 122.851 34.3664C123.558 34.2915 124.364 34.1959 125.266 34.0712L125.753 39.185C124.863 39.3471 123.998 39.4677 123.154 39.5467C122.31 39.6257 121.412 39.6673 120.456 39.6673V39.6797Z" fill="#72C5C2"/>
    <path d="M137.327 0H169.184V6.93555H157.081V39.8673H149.479V6.93555H137.327V0Z" fill="#0079B1"/>
    <path d="M191.603 27.3414H171.801C172.06 29.2814 172.753 30.7688 173.883 31.8034C175.013 32.8058 176.368 33.307 177.95 33.307C179.435 33.307 180.726 32.9998 181.823 32.3854C182.921 31.7388 183.711 30.8173 184.196 29.6209L191.119 31.6579C190.312 34.3093 188.73 36.3625 186.374 37.8175C184.018 39.2725 181.21 40 177.95 40C175.4 40 173.092 39.4503 171.027 38.351C168.993 37.284 167.363 35.6996 166.137 33.598C164.943 31.4639 164.345 28.8773 164.345 25.8379V23.2189C164.345 20.2119 164.943 17.6414 166.137 15.5073C167.363 13.3733 168.993 11.7728 171.027 10.7058C173.092 9.6388 175.4 9.1053 177.95 9.1053C180.5 9.1053 182.808 9.6388 184.873 10.7058C186.939 11.7728 188.569 13.3733 189.763 15.5073C190.99 17.6414 191.603 20.228 191.603 23.2674V27.3414ZM184.147 21.1334C184.147 20.1957 183.857 19.3227 183.276 18.5144C182.727 17.6737 181.968 17.0108 181 16.5258C180.064 16.0408 179.047 15.7983 177.95 15.7983C176.465 15.7983 175.174 16.251 174.077 17.1563C172.979 18.0617 172.253 19.3874 171.898 21.1334H184.147Z" fill="url(#paint0_linear_336_200)"/>
    <path d="M200.02 29.238C201.02 30.7577 202.279 31.857 203.796 32.5361C205.313 33.2151 206.765 33.5546 208.153 33.5546C209.444 33.5546 210.526 33.3606 211.397 32.9726C212.269 32.5522 212.704 31.8894 212.704 30.984C212.704 30.111 212.365 29.4644 211.688 29.044C211.042 28.6237 210.058 28.2519 208.734 27.9285L205.587 27.201C202.941 26.5867 200.746 25.552 199.003 24.097C197.292 22.642 196.437 20.5888 196.437 17.9375C196.437 15.0921 197.454 12.9096 199.487 11.3899C201.553 9.8379 204.248 9.0619 207.572 9.0619C212.64 9.0619 216.739 11.0827 219.87 15.1244L214.496 19.247C213.463 18.083 212.317 17.1615 211.058 16.4825C209.832 15.8034 208.621 15.4639 207.427 15.4639C206.265 15.4639 205.361 15.6741 204.716 16.0944C204.07 16.5148 203.748 17.1291 203.748 17.9375C203.748 18.7135 204.006 19.3278 204.522 19.7805C205.071 20.2008 205.926 20.5565 207.088 20.8475L210.235 21.575C213.043 22.2217 215.367 23.2563 217.207 24.679C219.079 26.1017 220.015 28.2034 220.015 30.984C220.015 32.9887 219.45 34.6539 218.32 35.9796C217.223 37.3376 215.754 38.3399 213.915 38.9866C212.107 39.6333 210.138 39.9566 208.008 39.9566C204.942 39.9566 202.214 39.3746 199.826 38.2106C197.437 37.0466 195.598 35.3652 194.307 33.1666L200.02 29.238Z" fill="url(#paint1_linear_336_200)"/>
    <path d="M243.669 38.545C242.797 38.9653 241.764 39.2887 240.57 39.515C239.376 39.7413 238.214 39.8545 237.084 39.8545C234.212 39.8545 231.952 39.1108 230.306 37.6235C228.692 36.1361 227.885 34.0021 227.885 31.2214V16.6228H223.431V9.6873H227.885V2.16975H235.487V9.6873H242.265V16.6228H235.487V30.0089C235.487 31.0759 235.713 31.8358 236.164 32.2884C236.616 32.7088 237.31 32.9189 238.246 32.9189C239.44 32.9189 240.715 32.6765 242.071 32.1914L243.669 38.545Z" fill="url(#paint2_linear_336_200)"/>
    <defs>
        <linearGradient id="paint0_linear_336_200" x1="165.974" y1="26.9565" x2="173.57" y2="26.9565" gradientUnits="userSpaceOnUse">
            <stop stop-color="#005078"/>
            <stop stop-color="#00537C"/>
            <stop offset="1" stop-color="#0079B1"/>
        </linearGradient>
        <linearGradient id="paint1_linear_336_200" x1="193.536" y1="21.3043" x2="203.302" y2="21.3043" gradientUnits="userSpaceOnUse">
            <stop stop-color="#005078"/>
            <stop offset="1" stop-color="#0079B1"/>
        </linearGradient>
        <linearGradient id="paint2_linear_336_200" x1="223.052" y1="20" x2="229.996" y2="20" gradientUnits="userSpaceOnUse">
            <stop stop-color="#005078"/>
            <stop offset="1" stop-color="#0079B1"/>
        </linearGradient>
    </defs>
</svg>
